<svg xmlns="http://www.w3.org/2000/svg" width="122" height="37" fill="none" viewBox="0 0 122 37">
    <path fill="#77DD1D" d="M116.14.45v.54h-1.45V5.2h-.59V.99h-1.45V.45h3.49zM118.94 3.41l1.42-2.96h.59V5.2h-.59V1.72l-1.16 2.49h-.53l-1.14-2.47V5.2h-.59V.45h.58l1.42 2.96zM29.14 29.19v7.21H.1V.45H29.15v10.17h-12v2.75h11.99v13.07c-1.09-.07-2.19-.19-3.31-.38-4.78-.79-8.03-2.4-8.06-2.42l-1.24 2.46c.14.07 3.59 1.79 8.76 2.66 1.29.22 2.58.36 3.85.43zm19.79-15.82v-2.75h12.05V.45H31.9V26.5c4.04-.11 7.85-1.06 11.37-2.85l1.24 2.46c-3.86 1.95-8.14 3.01-12.62 3.13v7.17h29.08V13.37H48.93zM78.94 12.89v4.18H66.43V.45H78.8v4.18h-6.92v2.34h6.22v3.41h-6.22v2.51h7.06zM94.26 10.05v7.02H90.4l-1.05-1.77h-.1c-.52 1.39-1.57 2.04-3.78 2.04-2.84 0-4.13-1.62-4.13-4.08s1.19-4.15 4.63-4.15c1.62 0 2.76.27 3.18.45h.07v-.7c0-1.02-.57-1.37-3.36-1.37-1.52 0-3.26.22-3.73.32l-.12-.12V4.06c1.02-.2 2.74-.4 4.43-.4 5.95 0 7.82 2.28 7.82 6.39zm-5.03 3.53v-1.79h-2.09c-.62 0-.85.3-.85.77v.62c0 .57.25.85 1.05.85h.25c.67 0 1.29-.2 1.64-.45zM106.66 12.79v4.23c-.42.1-1.97.32-3.28.32-4.23 0-5.5-1.89-5.5-5.3V8.21h-1.64V3.93h1.64V1.52l3.38-1.07H103v3.48h3.58v4.28H103v3.41c0 .82.25 1.14 1.44 1.14.75 0 1.64-.02 2.11-.07l.11.1zM74.39 19.56c2.02 0 3.68.2 4.45.32v3.93l-.1.1c-.95-.07-2.61-.17-4.03-.17-2.66 0-3.13.32-3.13 1.07v.17c0 .57.17.8 1.84 1.05l1.97.32c2.91.42 4.43 1.84 4.43 4.58 0 3.73-1.72 5.7-8.43 5.7-2.54 0-4.4-.22-5.1-.35v-4.06l.1-.07c1.42.17 3.11.3 4.83.3 2.61 0 3.09-.32 3.09-1.19v-.2c0-.65-.15-.9-2.31-1.22l-2.04-.32c-2.41-.35-3.88-1.67-3.88-4.5-.02-3.45 1.89-5.46 8.31-5.46zM94.98 23.27V36.4h-3.96l-.95-2.02h-.12c-.52 1.47-1.79 2.29-3.81 2.29-2.66 0-4.28-1.57-4.28-4.83v-8.58h5.15v7.76c0 .77.35 1.02 1.24 1.02.65 0 1.22-.17 1.59-.4v-8.38h5.14v.01zM106.66 23.27v4.8l-.15.15c-.3-.02-.57-.02-.85-.02-1.29 0-2.34.12-3.11.3v7.91h-5.13V23.27h3.71l1.04 2.04h.1c.47-1.52 1.67-2.19 3.31-2.19.49 0 .91.07 1.08.15zM113.43 31.03v.55c0 1.04.5 1.44 2.96 1.44 1.99 0 3.53-.17 4.18-.3l.1.1v3.36c-.87.22-2.69.5-4.8.5-5.75 0-7.44-2.26-7.44-6.77 0-4.78 2.29-6.92 6.84-6.92 3.88 0 5.85 1.77 5.85 5.35v2.69h-7.69zm0-2.94v.27h3.01v-.9c0-.82-.25-1.14-1.32-1.14h-.17c-1.24.01-1.52.55-1.52 1.77z"/>
</svg>
