<?xml version="1.0" encoding="UTF-8"?>
<svg width="117px" height="68px" viewBox="0 0 117 68" version="1.1" xmlns="http://www.w3.org/2000/svg" xmlns:xlink="http://www.w3.org/1999/xlink">
    <!-- Generator: Sketch 62 (91390) - https://sketch.com -->
    <title>Group 8</title>
    <desc>Created with Sketch.</desc>
    <defs>
        <polygon id="path-1" points="0.965457364 0.129072915 88.9835659 0.129072915 88.9835659 60.3124555 0.965457364 60.3124555"></polygon>
    </defs>
    <g id="Page-1" stroke="none" stroke-width="1" fill="none" fill-rule="evenodd">
        <g id="Faasos-Web-with-Safety" transform="translate(-113.000000, -45.000000)">
            <g id="Group-8" transform="translate(113.000000, 45.000000)">
                <path d="M23.0834315,25.6218099 C23.5869974,23.2354942 24.941416,22.3294748 27.3550594,21.8137407 C43.065447,18.4600751 58.7468941,14.9837485 74.4182119,11.4628178 C80.6476693,10.0633663 83.6473592,6.05179128 83.2667907,-0.00041816279 C79.7765581,2.16427121 75.800124,3.07447222 71.9061705,4.14636284 C54.7936124,8.85487585 36.8895297,10.8411491 20.1271525,16.5783426 C12.3247752,19.2490089 6.96787597,21.2046169 2.21004651,28.654884 C0.441777778,31.4245155 -0.504578811,34.4408631 0.276816537,37.7192594 C0.66896124,39.364033 1.68911628,40.4833154 3.67733333,40.1487852 C5.8290646,39.7863774 5.36456848,38.5179503 5.02596382,36.9958377 C4.09407752,32.790514 6.00994315,29.0828039 10.1079276,26.8484207 C12.5577468,25.5116937 15.215938,24.6753681 18.9622946,23.8028017 C14.1364548,27.576024 14.5720103,32.4727102 13.230615,36.7505156 C12.8920103,37.8321633 13.1654987,39.3612453 11.5708734,39.6957755 C7.59878036,40.5265256 8.05604134,43.6167486 7.51051163,46.6303084 C8.93149354,46.230266 9.71433592,44.8991145 11.2843618,45.4831485 C10.6693747,48.4423472 10.0153178,51.4126969 9.44229457,54.3997731 C8.90834109,57.1861311 8.18337984,59.9655198 8.61604134,62.8382982 C9.14131266,66.3299575 11.803845,68.4584061 14.8758863,67.8562516 C15.777385,67.6792294 16.8814677,67.425544 16.5356279,66.2574759 C14.4880827,59.3661531 17.2229664,52.8790544 18.1780052,46.2316599 C18.5310801,43.7714688 19.5526822,42.2883848 22.1833798,41.7628935 C26.1916486,40.9614149 27.9483411,38.2977179 28.19723,34.0561533 C25.6330956,35.4569987 23.2469457,36.296112 20.2197623,37.1143172 C21.2630698,32.9870505 22.3020362,29.3295199 23.0834315,25.6218099" id="Fill-1" fill="#FFD344"></path>
                <path d="M60.4248682,27.1830903 C59.3193385,30.9674636 57.9866253,34.670992 55.8956693,38.0720494 C55.5715349,38.6003284 55.2502946,39.3530214 54.4385116,39.2303603 C53.4661085,39.0798217 53.7005271,37.6734008 53.7294677,37.5005602 C53.7598553,37.3263257 55.729261,29.5861325 58.2789251,26.141865 C58.7029044,25.568982 59.291845,24.7201115 60.1918966,25.1508192 C61.128124,25.5996472 60.6288992,26.4861523 60.4248682,27.1830903 M41.0723101,32.355764 C39.9653333,36.1415312 38.6340672,39.8436657 36.5431111,43.246117 C36.2175297,43.774396 35.8962894,44.5256951 35.0845065,44.403034 C34.1135504,44.2538893 34.3552041,42.7889256 34.3754625,42.6732339 C34.4087442,42.4906362 36.3767028,34.7602001 38.9263669,31.3145387 C39.3503463,30.7430495 39.9392868,29.8927852 40.8378915,30.3234929 C41.7755659,30.7723209 41.2763411,31.6588261 41.0723101,32.355764 M74.3452817,20.2987369 C72.9300879,23.6719168 71.9099328,25.8129102 69.8783049,28.8864068 C68.9377364,30.310948 68.049261,31.6434934 66.7831111,33.2311181 C65.8266253,34.3713087 64.7500362,35.4529564 63.6054367,36.502545 C63.776186,31.9348135 64.996031,27.6486449 66.6195969,23.467017 C67.1159276,22.1888327 67.1057984,20.8799832 65.5169612,21.4026867 C61.6186667,22.6850526 56.9968579,22.2724653 54.0767545,26.0373243 C52.1391835,28.5365439 49.1365995,34.873104 48.5794935,36.9123446 C48.248124,38.1264105 45.8851266,40.178196 44.2528786,41.6752187 C44.4236279,37.1074872 45.6434729,32.8213186 47.2670388,28.6396907 C47.7633695,27.3615064 47.7532403,26.051263 46.1644031,26.5753604 C42.2661085,27.8577263 37.6442997,27.4437451 34.7241964,31.2113919 C32.7866253,33.7092176 31.0545323,36.255829 29.9924134,39.188544 C29.3933437,40.8458625 28.7262636,43.9500243 28.8637313,46.2527074 C29.0055401,48.6111456 31.0733437,49.7276402 33.7170646,48.2766153 C35.6691059,47.2047247 37.0191835,45.4791063 38.5472455,43.5499819 C39.6469871,46.2624646 41.0578398,47.4054428 43.6263152,45.8554528 C45.5074522,44.7208377 48.2495711,41.2152397 48.2495711,41.2152397 C48.8486408,43.785547 50.4722067,44.5284829 53.0696227,43.1039416 C55.0216641,42.032051 56.3717416,40.3050387 57.8998036,38.3759143 C58.9995452,41.0897908 60.411845,42.2327691 62.9803204,40.6841729 C64.690708,39.649917 68.4139121,35.1100629 70.1980982,32.3237049 C71.9576848,29.5749815 73.5638863,26.73705 75.2424393,23.9423287 C75.8993902,26.9224355 76.1121034,32.8087737 75.7315349,33.9810234 C75.3958243,35.0152794 74.5536537,36.6767795 71.9041447,37.8894516 C69.9202687,38.7968649 72.5842481,39.9496003 72.5842481,39.9496003 C74.6303463,40.8235605 79.9597519,42.256465 81.3850749,34.3253108 C81.387969,34.3016149 81.8915349,31.625373 81.3011473,27.6918551 C80.5617158,22.7714729 78.1856951,18.6302674 82.6309664,14.0095686 C79.0235245,15.2752079 75.8357209,16.7485348 74.3452817,20.2987369" id="Fill-3" fill="#FFD344"></path>
                <g id="Group-7" transform="translate(27.493540, 6.627462)">
                    <mask id="mask-2" fill="white">
                        <use xlink:href="#path-1"></use>
                    </mask>
                    <g id="Clip-6"></g>
                    <path d="M67.944062,11.7623617 C67.5562584,15.693092 66.5071628,19.4509816 64.5797209,22.9440347 C64.123907,23.7692093 63.5320724,24.9442467 62.3599793,24.5665064 C61.225509,24.199917 61.4555866,22.9760939 61.530832,21.8888706 C62.2123824,18.1281933 63.1761034,14.34382 65.3148114,10.938581 C65.7127442,10.3015797 66.261168,9.48198065 67.1235969,9.77887623 C67.9209096,10.0548637 68.0222016,10.9790034 67.944062,11.7623617 M88.9838553,0.129072915 C85.2273695,1.55779578 81.8210646,3.11057361 80.3566718,6.88379585 C79.245354,9.75239259 78.1470594,16.9015824 69.5893333,23.0025775 C72.0695401,20.0141075 72.879876,16.2799137 73.2778088,11.9533227 C73.7234935,7.10960376 70.8656124,5.24738546 66.2351214,7.37583406 C59.6627183,10.3949694 56.7541912,15.7976327 56.2202377,21.7104545 C55.9872661,26.5221143 58.2677829,28.0498024 61.2298501,27.9257474 C64.1919173,27.8016925 68.9873695,26.7632549 75.9099535,20.2636113 C78.6665426,17.6737897 79.9138811,15.3920147 81.2118656,12.1359205 C81.8196176,15.3989841 82.7833385,17.7574223 82.4244755,22.8102226 C82.1075762,27.2525053 79.4450439,31.8662348 68.2407028,35.246384 C38.1135711,44.3344553 40.399876,42.5935042 9.5608062,50.3113955 C3.17217571,51.9115651 1.4256124,53.7919038 0.965457364,60.3124555 C8.85176227,58.2676395 43.7801344,49.4011945 69.6269561,41.1605997 C86.2041137,35.8736282 87.5484031,30.9058543 88.4180672,25.7791785 C89.8723307,17.1956902 82.1770336,6.4461188 88.9838553,0.129072915" id="Fill-5" fill="#FFD344" mask="url(#mask-2)"></path>
                </g>
            </g>
        </g>
    </g>
</svg>