<svg xmlns="http://www.w3.org/2000/svg" width="66" height="46" viewBox="0 0 66 46">
    <g fill="none">
        <g>
            <path fill="#F6D232" d="M50.042 28.843L47.265 6.937c-.168-1.293-.84-2.449-1.88-3.25-1.04-.803-2.33-1.145-3.63-.977L4.501 7.59c-2.684.354-4.583 2.816-4.234 5.501l.467 3.537c.236-.087.51-.136.81-.136h.024c.386-.125.785-.187 1.214-.218.355-.025.71.006 1.065-.037.062-.006.13-.006.193-.006l-.467-3.575c-.112-.864.498-1.653 1.364-1.765L42.19 6.01c.069-.006.137-.012.206-.012.342 0 .678.112.959.33.336.26.554.627.603 1.031l2.784 21.937.012.08c.43 2.419-.13 4.837-1.588 6.814-1.45 1.977-3.592 3.245-6.027 3.568L20.36 42.233c-3.374.441-6.73-.466-9.445-2.549-.99-.764-1.85-1.647-2.565-2.63-.274.399-.66.728-1.078.89-.41.33-.815.565-1.363.64-.2.025-.38.025-.56.012.958 1.405 2.141 2.661 3.53 3.73 2.858 2.188 6.276 3.35 9.8 3.35.704 0 1.407-.043 2.111-.136l18.773-2.468c3.35-.441 6.288-2.182 8.287-4.898 1.992-2.717 2.765-6.024 2.192-9.33z" transform="translate(12.453)"/>
            <path fill="#FFF" d="M23.555 17.884c-1.127 0-2.26-.224-3.338-.678-2.142-.895-3.823-2.58-4.732-4.73-.909-2.157-.934-4.532-.075-6.689.86-2.163 2.51-3.854 4.645-4.749 2.136-.895 4.496-.895 6.65.006 2.142.895 3.823 2.58 4.732 4.73 1.88 4.458-.174 9.592-4.57 11.439-1.065.447-2.185.671-3.312.671zM21.15 3.643c-2.957 1.243-4.333 4.712-3.057 7.739 1.276 3.021 4.72 4.47 7.677 3.226 2.958-1.243 4.334-4.712 3.057-7.733-.616-1.467-1.762-2.61-3.219-3.22-1.444-.61-3.026-.615-4.458-.012zM44.787 23.497c-1.127 0-2.26-.223-3.338-.677-2.142-.895-3.823-2.58-4.732-4.73-1.88-4.458.175-9.592 4.57-11.439 4.396-1.846 9.508.28 11.382 4.737.91 2.157.934 4.532.075 6.689-.86 2.163-2.51 3.854-4.645 4.749-1.065.448-2.185.671-3.312.671zM42.383 9.256c-1.432.603-2.534 1.734-3.113 3.189-.585 1.467-.56 3.077.056 4.55.616 1.467 1.762 2.61 3.22 3.22 1.444.603 3.031.61 4.457.006 1.432-.603 2.534-1.734 3.113-3.189.586-1.467.56-3.077-.056-4.55-1.27-3.015-4.713-4.47-7.677-3.226z" transform="translate(12.453)"/>
        </g>
        <path fill="#FBDB33" d="M7.484 9.181c2.51.317 3.724 1.871 4.128 4.246.18 1.05.467 2.082.735 3.251.728-.168 1.364-.31 1.992-.454 3.686-.839 5.86 1.306 5.006 4.942 2.89 1.306 3.518 4.265 1.32 6.484 1.613 2.604 1.607 3.68-.018 5.656.236.566.56 1.113.697 1.698.374 1.585-.542 3.145-2.13 3.53-2.733.672-5.466 1.35-8.237 1.853-3.088.56-7.777-.945-9.252-6.291-.635-2.3-1.165-4.65-1.488-7.012-.461-3.363.902-6.036 3.71-7.907.673-.448.76-.827.567-1.504-.236-.833-.33-1.71-.604-2.53-.766-2.288-.23-4.128 1.737-5.545.617-.143 1.227-.28 1.837-.417zm7.154 28.545c.007.038.019.069.025.106 1.22-.28 2.441-.547 3.661-.84 1.071-.254 1.57-.907 1.351-1.727-.211-.796-.877-1.113-1.923-.877-1.563.348-3.12.709-4.677 1.063-.585.13-1.151-.006-1.158-.646-.006-.33.461-.715.785-.983.193-.155.53-.143.797-.205 1.594-.366 3.188-.702 4.776-1.1 1.276-.317 1.911-1.063 1.83-2.039-.106-1.355-1.14-2.089-2.596-1.778-1.868.398-3.73.833-5.592 1.275-.566.136-1.083.118-1.264-.529-.193-.72.293-.97.903-1.1 2.173-.485 4.34-.976 6.507-1.486.436-.1.878-.236 1.258-.46.815-.485 1.09-1.237.821-2.144-.255-.852-.853-1.337-1.762-1.337-.41 0-.828.069-1.232.156-2.068.46-4.135.938-6.202 1.404-.616.137-1.332.367-1.544-.503-.212-.858.498-1.007 1.127-1.15 1.899-.429 3.798-.852 5.69-1.305 1.19-.286 1.838-1.237 1.626-2.282-.218-1.063-1.202-1.703-2.391-1.442-2.951.647-5.915 1.28-8.835 2.045-3.356.877-5.355 4.302-4.602 7.665.461 2.064.934 4.127 1.414 6.191.734 3.146 3.605 5.321 6.836 5.004 1.476-.155 2.914-.646 4.371-.976zm-4.053-20.7c-.318-1.392-.629-2.797-.965-4.196-.3-1.262-1.32-1.989-2.49-1.802-1.146.186-1.993 1.156-1.806 2.393.224 1.523.66 3.015 1.014 4.575 1.401-.317 2.74-.628 4.247-.97z"/>
        <path fill="#FFF" d="M61.143 24.598c.617-.572-.298-1.511-.921-.933-2.927 2.73-6.855 4.202-10.834 4.146.28-1.802.286-3.655-.629-5.128-.697-1.125-1.88-1.84-3.163-2.07-.448-.472-1.052-.814-1.768-.889-3.693-.392-7.304.31-10.517 1.865-.018.006-.043.006-.062.012-1.768.491-3.83 1.542-5.61 2.96-2.067-.392-5.162-1.53-6.936-2.661.068.51 1.183 1.367 1.14 1.89 1.413.82 2.944 1.46 4.563 1.864-1.644 1.61-2.858 3.55-3.063 5.632-.567-.192-1.12-.416-1.663-.665 0 .448-.124.895-.342 1.274.66.293 1.332.547 2.024.765.03.249.068.497.136.746.704 2.81 3.444 4.413 5.903 5.551 2.64 1.225 5.598 2.114 8.543 1.977 2.87-.13 5.174-1.206 6.942-2.89.922-.598 1.712-1.331 2.366-2.17 1.95.534 3.942.901 5.953 1.088 1.17.112 2.428.192 3.511-.36.934-.48 1.65-1.487 1.55-2.556-.08-.827-1.388-.864-1.307-.025.094.945-.728 1.505-1.575 1.66-1.027.187-2.154-.012-3.176-.137-1.407-.18-2.801-.46-4.171-.82.934-1.648 1.413-3.575 1.376-5.601 4.296.068 8.567-1.573 11.73-4.525z"/>
    </g>
</svg>
