<svg xmlns="http://www.w3.org/2000/svg" width="72" height="45" viewBox="0 0 72 45">
    <g fill="none">
        <g>
            <path fill="#F6D232" d="M45.723 28.307l-2.718-21.47c-.168-1.272-.817-2.4-1.842-3.185-1.018-.785-2.277-1.122-3.548-.96L1.161 7.472c-.227.033-.441.078-.655.137.973.343 1.77.934 2.439 1.933.188.285.285.61.298.947l34.794-4.56c.065-.007.136-.013.2-.013.338 0 .662.11.941.324.331.253.539.616.59 1.012l2.725 21.503.013.077c.422 2.368-.13 4.742-1.55 6.682-1.42 1.939-3.516 3.184-5.903 3.496l-18.376 2.42c-5.935.778-11.462-2.758-13.408-8.174-.013 1.07-.026 2.14-.026 3.218 0 .862-.408 1.459-.973 1.796 2.906 4.002 7.622 6.532 12.772 6.532.681 0 1.369-.045 2.063-.136l18.376-2.42c3.276-.428 6.156-2.134 8.108-4.8 1.94-2.652 2.699-5.896 2.134-9.139z" transform="translate(22.703)"/>
            <path fill="#FFF" d="M19.81 17.565c-1.103 0-2.212-.22-3.27-.661-2.095-.876-3.742-2.523-4.63-4.638-.89-2.115-.915-4.443-.079-6.558.844-2.121 2.459-3.775 4.547-4.657 2.089-.882 4.398-.876 6.506.006 2.095.876 3.743 2.524 4.632 4.638 1.835 4.372-.169 9.4-4.476 11.209-1.038.44-2.134.661-3.23.661zm-.188-14.4c-.733 0-1.473.15-2.167.441-1.4.59-2.484 1.7-3.049 3.127-.57 1.433-.55 3.016.052 4.456 1.246 2.965 4.619 4.385 7.512 3.166 2.9-1.22 4.242-4.619 2.99-7.583-.603-1.44-1.725-2.562-3.146-3.159-.707-.298-1.453-.448-2.192-.448zM40.586 23.066c-1.103 0-2.212-.22-3.27-.662-2.094-.875-3.742-2.523-4.63-4.638-1.836-4.371.168-9.398 4.475-11.208 2.089-.876 4.398-.876 6.506.006 2.095.876 3.743 2.524 4.631 4.638.889 2.115.915 4.443.078 6.558-.843 2.121-2.458 3.775-4.547 4.657-1.044.435-2.14.649-3.243.649zM38.23 9.107c-2.9 1.22-4.242 4.618-2.99 7.583.603 1.44 1.725 2.562 3.146 3.159 1.414.59 2.964.596 4.365.006 1.402-.59 2.485-1.7 3.05-3.126.57-1.434.55-3.017-.053-4.457-1.252-2.957-4.618-4.378-7.518-3.165zM22.346 33.957c-2.634 0-5.241-.714-7.576-2.095-3.419-2.03-5.838-5.26-6.818-9.088-.233-.921.325-1.862 1.246-2.095.92-.234 1.861.324 2.095 1.245.746 2.939 2.608 5.417 5.235 6.973 2.627 1.564 5.695 2.011 8.633 1.259.921-.234 1.862.324 2.095 1.245.234.921-.324 1.862-1.245 2.095-1.213.312-2.44.46-3.665.46z" transform="translate(22.703)"/>
        </g>
        <path fill="#FFF" d="M26.932 9.775L20.147 2.99c-.214-.214-.5-.33-.798-.33H1.26c-.623 0-1.13.505-1.13 1.128v33.924c0 .623.507 1.13 1.13 1.13h24.875c.623 0 1.129-.507 1.129-1.13V10.573c0-.298-.117-.59-.331-.798zM20.484 6.52l2.926 2.925h-2.926V6.52zm4.521 30.058H2.387V4.917h15.827v5.656c0 .623.506 1.129 1.129 1.129h5.656v24.875h.006z"/>
        <path fill="#FFF" d="M6.915 18.486H9.179V20.75H6.915zM11.436 18.486H20.485V20.75H11.436zM6.915 24.143H9.179V26.407H6.915zM11.436 24.143H20.485V26.407H11.436zM6.915 29.792H9.179V32.056000000000004H6.915zM11.436 29.792H20.485V32.056000000000004H11.436zM9.172 10.573L9.172 8.309 6.915 8.309 6.915 10.573 4.651 10.573 4.651 12.83 6.915 12.83 6.915 15.094 9.172 15.094 9.172 12.83 11.436 12.83 11.436 10.573z"/>
    </g>
</svg>
