<svg xmlns="http://www.w3.org/2000/svg" width="64" height="42" viewBox="0 0 64 42">
    <g fill="none" fill-rule="evenodd">
        <path fill="#F6D232" fill-rule="nonzero" d="M59.58 26.902L57.133 7.236c-.313-2.41-2.487-4.107-4.857-3.793l-32.84 4.38c-1.844.244-3.261 1.645-3.653 3.388.409.125.795.404 1.081.877.443.73 1.367 1.11 1.927 1.749.006.011.017.017.023.028l-.19-1.492c-.102-.775.436-1.487 1.198-1.59l32.84-4.379c.062-.005.124-.011.18-.011.69 0 1.289.518 1.378 1.224l2.454 19.695.011.074c.381 2.17-.117 4.34-1.395 6.117-1.277 1.777-3.165 2.916-5.316 3.2l-16.55 2.216c-.498.068-.986.097-1.473.097-5.574 0-10.431-4.215-11.177-9.979l-.274-2.13c-.078 2.717-.32 5.428-.695 8.139C22.337 39.272 26.908 42 31.95 42c.616 0 1.233-.04 1.86-.125l16.555-2.216c2.952-.393 5.546-1.959 7.305-4.397 1.737-2.42 2.42-5.393 1.91-8.36z"/>
        <path stroke="#FFF" stroke-linecap="round" stroke-linejoin="round" stroke-width="3" d="M33.41 2.788h0c3.433-1.436 7.405.218 8.88 3.695h0c1.467 3.478-.12 7.456-3.552 8.891h0c-3.434 1.436-7.405-.217-8.88-3.695h0c-1.473-3.478.12-7.455 3.552-8.891zM52.572 8.464h0c3.434-1.436 7.406.217 8.88 3.695h0c1.469 3.477-.118 7.455-3.552 8.891h0c-3.434 1.436-7.407-.218-8.88-3.695h0c-1.47-3.478.124-7.456 3.552-8.891zM27.055 20.432c1.638 6.428 8.232 10.348 14.654 8.708"/>
        <path fill="#F6D232" fill-rule="nonzero" d="M7.3.278h6.6c.72.182 1.437.369 2.045.834.62.472 1.223.965 1.843 1.436.209.165.203.313.045.511-.32.392-.63.79-.935 1.186-.147.193-.288.216-.48.057-.32-.272-.67-.505-.969-.8-.879-.863-1.944-1.118-3.128-1.056-.316.017-.417.13-.411.437.01.676.01 1.351 0 2.026-.006.313.112.432.422.426.705-.011 1.41.011 2.114-.011.355-.012.485.119.48.482-.018 1.118.005 2.242-.012 3.36-.006.312.101.511.36.681 1.032.664 1.996 1.408 2.819 2.327 1.972 2.197 3.088 4.774 3.122 7.73.062 5.602.017 11.21.017 16.812 0 .596 0 .596-.603.596H.947c-.676 0-.676 0-.676-.704v-.29V20.12c0-2.503.783-4.756 2.198-6.794.992-1.435 2.288-2.548 3.748-3.479.276-.176.378-.386.372-.71-.017-1.106-.006-2.218-.006-3.325 0-.46.034-.488.496-.488.756-.006 1.505-.012 2.26 0 .294.005.406-.114.4-.409-.01-.687-.01-1.373 0-2.06.006-.324-.135-.42-.433-.414-.525.01-1.054-.006-1.579.005-.298.006-.445-.09-.434-.414C7.305 1.459 7.3.868 7.3.278zm3.437 29.638h7.778c.536 0 .536-.005.536-.55 0-3.014.017-6.022-.006-9.036-.005-1.186-.214-2.344-.625-3.468-.102-.278-.254-.397-.553-.397-4.746.006-9.486.006-14.232 0-.315 0-.473.125-.574.414-.384 1.062-.61 2.163-.615 3.287-.022 3.07-.005 6.146-.005 9.217 0 .522.01.528.518.528 2.593.005 5.186.005 7.778.005zm-.011 5.21h7.851c.446 0 .468-.028.474-.47.006-.613 0-1.232 0-1.845 0-.641 0-.641-.631-.641H3.145c-.107 0-.214.005-.321 0-.27-.012-.39.113-.383.391.005.676 0 1.351 0 2.027 0 .539.005.544.546.544 2.576-.005 5.158-.005 7.739-.005zm-.023-20.903h5.766c.113 0 .271.063.322-.074.05-.124-.096-.204-.175-.289-.834-.982-1.871-1.708-2.937-2.4-.146-.097-.31-.114-.479-.114H8.291c-.169 0-.332.011-.479.108-1.065.692-2.108 1.413-2.942 2.4-.073.091-.226.17-.18.29.056.153.23.085.355.085 1.882-.006 3.77-.006 5.658-.006zm.023-5.136c.321 0 .643.005.964 0 1.217-.023 1.031.227 1.048-1.152 0-.25-.113-.34-.35-.34-1.098.005-2.197.005-3.29 0-.238 0-.356.096-.35.345.005.25.01.505 0 .76-.017.302.124.404.405.398.525-.023 1.049-.011 1.573-.011z"/>
    </g>
</svg>
