<svg xmlns="http://www.w3.org/2000/svg" width="76" height="47" viewBox="0 0 76 47">
    <g fill="none" fill-rule="evenodd">
        <g stroke-width="3">
            <path stroke="#F6D232" d="M4.544 30.264c.813 5.5 6.018 9.213 11.436 8.148l17.026-3.338c7.15-1.405 11.859-8.444 10.464-15.643L40.18 2.45C39.868.838 38.297-.228 36.694.086L2.924 6.72C1.32 7.033.262 8.616.573 10.23l3.97 20.035h0z" transform="translate(29.967 6.775)"/>
            <path stroke="#FFF" stroke-linecap="round" stroke-linejoin="round" d="M29.747 3.689h0c-3.651-.277-6.838 2.531-7.119 6.276h0c-.281 3.744 2.452 7.002 6.104 7.28h0c3.65.276 6.837-2.538 7.118-6.283h0c.282-3.738-2.452-6.996-6.103-7.273zM30.138 22.325c.532 3.991-2.25 7.668-6.213 8.204-3.963.535-7.608-2.267-8.146-6.258M6.917 10.494s8.14-.486 11.063 2.716c0 0-6.721 1.546-9.314 5.1" transform="translate(29.967 6.775)"/>
        </g>
        <g fill="#F6D232" fill-rule="nonzero">
            <path d="M32.065 17.922c-.71.382-1.517.277-2.27.437-4.06.862-6.665 3.948-6.83 8.111-.025.579.256 1.527-.673 1.509-.77-.019-.593-.93-.624-1.49-.275-4.786-3.144-7.816-7.908-8.315-.208-.024-.428-.018-.63-.061-.3-.062-.532-.228-.544-.56-.012-.34.22-.537.508-.592.624-.123 1.26-.172 1.877-.302 4.006-.85 6.507-3.867 6.679-7.988.024-.585-.263-1.552.623-1.558.985-.012.66.998.685 1.602.202 4.41 3.315 7.729 7.651 8.11.49.044.972.154 1.462.24-.006.29-.006.573-.006.857zm-15.491-.388c2.556 1.065 4.311 2.63 5.37 4.939.293.64.568.37.751-.08.545-1.324 1.48-2.328 2.514-3.258.758-.684 1.737-1.028 2.721-1.675-2.483-1.078-4.33-2.642-5.37-5.063-.256-.59-.495-.11-.623.154-.495 1.035-1.07 2.008-1.908 2.803-.942.88-2.061 1.49-3.455 2.18zM.226 23.908c.355-.172.74-.21 1.132-.259 2.17-.258 3.73-1.884 3.938-4.089.012-.142.006-.29.03-.425.08-.413.093-.936.661-.942.587-.006.593.499.636.93.11 1.114.343 2.174 1.113 3.042.85.955 1.933 1.398 3.174 1.515.398.037.82.136.832.64.006.512-.416.586-.807.666-3.058.597-3.957 1.589-4.336 4.723-.037.278-.14.549-.214.82h-.85c-.08-.493-.19-.98-.233-1.472-.214-2.211-1.54-3.665-3.718-4.04-.453-.08-.899-.173-1.352-.26-.006-.276-.006-.566-.006-.849zm5.676-1.878c-.055.037-.135.067-.165.123-.502.788-1.162 1.416-1.915 1.964-.385.278-.067.487.165.64.624.42 1.187.9 1.572 1.559.306.53.538.425.814-.03.391-.647.941-1.146 1.565-1.565.178-.123.569-.302.25-.536-.812-.591-1.522-1.262-2.097-2.082-.03-.049-.122-.055-.19-.073zM10.843.179c.324.535.294 1.164.416 1.749.47 2.248 1.657 3.424 3.877 3.769.208.03.428.043.624.117.312.11.581.314.52.702-.049.32-.312.456-.612.505-.244.037-.495.03-.74.074-2 .363-3.24 1.589-3.675 3.627-.073.345-.129.696-.177 1.047-.05.37-.104.758-.575.74-.471-.02-.49-.42-.539-.783-.055-.388-.122-.77-.207-1.152-.416-1.927-1.719-3.171-3.664-3.498-.244-.043-.495-.043-.734-.104-.281-.074-.544-.234-.562-.56-.019-.395.281-.537.599-.635.098-.031.208-.037.312-.056 2.666-.474 3.847-1.7 4.226-4.415.055-.388.024-.789.263-1.127h.648zm-.397 3.855c-.104.11-.214.197-.282.308C9.78 5 9.241 5.506 8.63 5.93c-.507.35-.483.646.037.936.77.425 1.137 1.607 1.774 1.687.678.087.99-1.231 1.767-1.613.122-.062.226-.166.342-.247.257-.184.318-.4.037-.59-.746-.5-1.376-1.103-1.86-1.867-.048-.08-.158-.117-.28-.203z"/>
        </g>
    </g>
</svg>
